<?xml version="1.0" encoding="utf-8"?>
<!-- Generator: Adobe Illustrator 11.0, SVG Export Plug-In  -->
<!DOCTYPE svg PUBLIC "-//W3C//DTD SVG 1.0//EN"    "http://www.w3.org/TR/2001/REC-SVG-20010904/DTD/svg10.dtd" [
	<!ENTITY ns_flows "http://ns.adobe.com/Flows/1.0/">
	<!ENTITY ns_svg "http://www.w3.org/2000/svg">
	<!ENTITY ns_xlink "http://www.w3.org/1999/xlink">
]>
<svg  xmlns="&ns_svg;" xmlns:xlink="&ns_xlink;" xmlns:a="http://ns.adobe.com/AdobeSVGViewerExtensions/3.0/"
	 width="1388" height="736" viewBox="-0.138 -0.216 1388 736" xml:space="preserve">
	<style type="text/css">
	<![CDATA[
		.st0{fill:none;stroke:#0A50A1;stroke-width:2;stroke-linecap:square;stroke-miterlimit:10;}
		
			.st1{fill-rule:evenodd;clip-rule:evenodd;fill:#FFFFFF;stroke:#128080;stroke-width:2.025;stroke-linecap:square;stroke-miterlimit:10;}
		.st2{fill:none;stroke:#165829;stroke-width:2;stroke-linecap:square;stroke-miterlimit:10;}
		.st3{fill:none;stroke:#BF8040;stroke-width:1.125;stroke-linecap:square;stroke-miterlimit:10;}
		.st4{fill:none;stroke:#128080;stroke-width:2;stroke-linecap:square;stroke-miterlimit:10;}
		.st5{font-size:9;}
		.st6{fill:none;stroke:#BF8040;stroke-width:2.025;stroke-linecap:square;stroke-miterlimit:10;}
		.st7{font-family:'ArialMT';}
		.st8{fill:none;stroke:#FF7F00;stroke-width:2;stroke-linecap:square;stroke-miterlimit:10;}
	]]>
	</style>
	<defs>
	</defs>
	<g>
		<polygon class="st1" points="394.3,246.475 930.475,246.475 930.475,532.225 394.3,532.225 394.3,246.475 "/>
		<path class="st8" d="M1,418.037C1,314.85,21.95,232.3,48.137,232.3s47.138,82.55,47.138,185.737S74.325,603.774,48.137,603.774
			S1,521.225,1,418.037L1,418.037z"/>
		<text transform="matrix(1 0 0 1 38.7949 402.9053)"><tspan x="0" y="0" class="st7 st5">au</tspan><tspan x="11.25" y="0" class="st7 st5">t</tspan><tspan x="13.95" y="0" class="st7 st5">eu</tspan><tspan x="25.2" y="0" class="st7 st5">r</tspan></text>
		<path class="st0" d="M1282.6,399.475c0-107.5,22.949-193.5,51.637-193.5s51.639,86,51.639,193.5s-22.951,193.5-51.639,193.5
			S1282.6,506.975,1282.6,399.475L1282.6,399.475z"/>
		<text transform="matrix(1 0 0 1 1320.1714 399.0781)"><tspan x="0" y="0" class="st7 st5">l</tspan><tspan x="2.249" y="0" class="st7 st5">e</tspan><tspan x="7.874" y="0" class="st7 st5">c</tspan><tspan x="12.823" y="0" class="st7 st5">t</tspan><tspan x="15.524" y="0" class="st7 st5">eu</tspan><tspan x="26.774" y="0" class="st7 st5">r</tspan></text>
		<path class="st6" d="M158.725,692.087c0-23.313,139.1-41.962,312.975-41.962s312.975,18.649,312.975,41.962
			s-139.1,41.963-312.975,41.963S158.725,715.399,158.725,692.087L158.725,692.087z"/>
		<text transform="matrix(1 0 0 1 451.4497 691.5781)"><tspan x="0" y="0" class="st7 st5">a</tspan><tspan x="5.624" y="0" class="st7 st5">n</tspan><tspan x="11.694" y="0" class="st7 st5">a</tspan><tspan x="17.319" y="0" class="st7 st5">l</tspan><tspan x="20.014" y="0" class="st7 st5">y</tspan><tspan x="25.409" y="0" class="st7 st5">s</tspan><tspan x="31.032" y="0" class="st7 st5">t</tspan><tspan x="34.406" y="0" class="st7 st5">e</tspan></text>
		<polygon class="st8" points="203.949,273.925 209.35,275.05 211.824,276.175 213.85,277.975 215.65,280 217,282.25 217.9,284.725 
			218.125,287.425 217,292.824 215.65,295.074 213.85,297.1 211.824,298.675 209.35,299.8 206.65,300.699 203.949,300.925 
			164.8,300.925 160.3,300.925 154.9,299.8 152.425,298.675 150.4,297.1 148.6,295.074 147.25,292.824 146.35,290.125 
			146.125,287.425 147.25,282.25 148.6,280 150.4,277.975 152.425,276.4 154.9,275.05 157.6,274.15 160.3,273.925 197.425,273.925 
			203.949,273.925 "/>
		<text transform="matrix(1 0 0 1 172.2266 291.3042)"><tspan x="0" y="0" class="st7 st5">c</tspan><tspan x="4.95" y="0" class="st7 st5">r</tspan><tspan x="8.316" y="0" class="st7 st5">e</tspan><tspan x="13.941" y="0" class="st7 st5">e</tspan></text>
		<polygon class="st8" points="361.9,475.975 367.3,477.1 369.775,478.225 371.8,480.024 373.6,482.05 374.949,484.3 
			375.85,486.774 376.074,489.475 374.949,494.875 373.6,497.125 371.8,499.149 369.775,500.725 367.3,501.85 364.6,502.75 
			361.9,502.975 322.75,502.975 318.25,502.975 312.85,501.85 310.375,500.725 308.35,499.149 306.55,497.125 305.199,494.875 
			304.3,492.175 304.074,489.475 305.199,484.3 306.55,482.05 308.35,480.024 310.375,478.45 312.85,477.1 315.55,476.2 
			318.25,475.975 355.375,475.975 361.9,475.975 "/>
		<text transform="matrix(1 0 0 1 330.1714 493.3584)"><tspan x="0" y="0" class="st7 st5">c</tspan><tspan x="4.95" y="0" class="st7 st5">r</tspan><tspan x="8.316" y="0" class="st7 st5">e</tspan><tspan x="13.941" y="0" class="st7 st5">e</tspan></text>
		<polygon class="st0" points="1153.45,480.475 1158.85,481.6 1161.325,482.725 1163.35,484.524 1165.151,486.55 1166.5,488.8 
			1167.401,491.274 1167.625,493.975 1166.5,499.375 1165.151,501.625 1163.35,503.649 1161.325,505.225 1158.85,506.35 
			1156.151,507.25 1153.45,507.475 1114.299,507.475 1109.799,507.475 1104.401,506.35 1101.924,505.225 1099.901,503.649 
			1098.1,501.625 1096.75,499.375 1095.85,496.675 1095.625,493.975 1096.75,488.8 1098.1,486.55 1099.901,484.524 1101.924,482.95 
			1104.401,481.6 1107.1,480.7 1109.799,480.475 1146.924,480.475 1153.45,480.475 "/>
		<text transform="matrix(1 0 0 1 1113.6245 497.8623)"><tspan x="0" y="0" class="st7 st5">ob</tspan><tspan x="11.249" y="0" class="st7 st5">s</tspan><tspan x="16.199" y="0" class="st7 st5">e</tspan><tspan x="21.824" y="0" class="st7 st5">r</tspan><tspan x="25.19" y="0" class="st7 st5">ve</tspan></text>
		<polygon class="st0" points="1248.625,212.949 1254.026,214.074 1256.5,215.199 1258.526,217 1260.325,219.025 1261.674,221.275 
			1262.575,223.75 1262.799,226.449 1261.674,231.85 1260.325,234.1 1258.526,236.125 1256.5,237.699 1254.026,238.824 
			1251.325,239.725 1248.625,239.949 1209.475,239.949 1204.975,239.949 1199.575,238.824 1197.1,237.699 1195.075,236.125 
			1193.276,234.1 1191.924,231.85 1191.026,229.15 1190.799,226.449 1191.924,221.275 1193.276,219.025 1195.075,217 
			1197.1,215.425 1199.575,214.074 1202.276,213.175 1204.975,212.949 1242.1,212.949 1248.625,212.949 "/>
		<text transform="matrix(1 0 0 1 1216.8979 230.3271)"><tspan x="0" y="0" class="st7 st5">c</tspan><tspan x="4.95" y="0" class="st7 st5">r</tspan><tspan x="8.316" y="0" class="st7 st5">e</tspan><tspan x="13.94" y="0" class="st7 st5">e</tspan></text>
		<line class="st8" x1="80.65" y1="286.975" x2="146.125" y2="286.975"/>
		<line class="st8" x1="91" y1="488.35" x2="304.074" y2="488.35"/>
		<line class="st0" x1="1262.799" y1="226.449" x2="1313.424" y2="226.449"/>
		<line class="st0" x1="1167.625" y1="493.975" x2="1289.125" y2="493.975"/>
		<polygon class="st6" points="201.025,545.95 206.425,547.075 208.9,548.2 210.925,550 212.725,552.024 214.074,554.274 
			214.975,556.75 215.199,559.45 214.074,564.85 212.725,567.1 210.925,569.125 208.9,570.7 206.425,571.825 203.725,572.725 
			201.025,572.95 161.875,572.95 157.375,572.95 151.975,571.825 149.5,570.7 147.475,569.125 145.675,567.1 144.324,564.85 
			143.425,562.149 143.199,559.45 144.324,554.274 145.675,552.024 147.475,550 149.5,548.425 151.975,547.075 154.675,546.175 
			157.375,545.95 194.5,545.95 201.025,545.95 "/>
		<text transform="matrix(1 0 0 1 161.2012 563.3291)"><tspan x="0" y="0" class="st7 st5">ob</tspan><tspan x="11.25" y="0" class="st7 st5">s</tspan><tspan x="16.199" y="0" class="st7 st5">e</tspan><tspan x="21.824" y="0" class="st7 st5">r</tspan><tspan x="25.19" y="0" class="st7 st5">ve</tspan></text>
		<polygon class="st6" points="361.9,599.05 367.3,600.175 369.775,601.3 371.8,603.1 373.6,605.125 374.949,607.375 375.85,609.85 
			376.074,612.55 374.949,617.95 373.6,620.2 371.8,622.225 369.775,623.8 367.3,624.925 364.6,625.825 361.9,626.05 322.75,626.05 
			318.25,626.05 312.85,624.925 310.375,623.8 308.35,622.225 306.55,620.2 305.199,617.95 304.3,615.25 304.074,612.55 
			305.199,607.375 306.55,605.125 308.35,603.1 310.375,601.524 312.85,600.175 315.55,599.274 318.25,599.05 355.375,599.05 
			361.9,599.05 "/>
		<text transform="matrix(1 0 0 1 322.0762 616.4307)"><tspan x="0" y="0" class="st7 st5">ob</tspan><tspan x="11.25" y="0" class="st7 st5">s</tspan><tspan x="16.199" y="0" class="st7 st5">e</tspan><tspan x="21.824" y="0" class="st7 st5">r</tspan><tspan x="25.19" y="0" class="st7 st5">ve</tspan></text>
		<polygon class="st6" points="454.6,549.55 460,550.675 462.475,551.8 464.5,553.6 466.3,555.625 467.65,557.875 468.55,560.35 
			468.775,563.05 467.65,568.45 466.3,570.7 464.5,572.725 462.475,574.3 460,575.425 457.3,576.325 454.6,576.55 415.449,576.55 
			410.949,576.55 405.55,575.425 403.074,574.3 401.05,572.725 399.25,570.7 397.9,568.45 397,565.75 396.775,563.05 397.9,557.875 
			399.25,555.625 401.05,553.6 403.074,552.024 405.55,550.675 408.25,549.774 410.949,549.55 448.074,549.55 454.6,549.55 "/>
		<text transform="matrix(1 0 0 1 414.7705 566.9307)"><tspan x="0" y="0" class="st7 st5">ob</tspan><tspan x="11.25" y="0" class="st7 st5">s</tspan><tspan x="16.199" y="0" class="st7 st5">e</tspan><tspan x="21.824" y="0" class="st7 st5">r</tspan><tspan x="25.19" y="0" class="st7 st5">ve</tspan></text>
		<polygon class="st6" points="586,576.55 591.4,577.675 593.875,578.8 595.9,580.6 597.699,582.625 599.05,584.875 599.949,587.35 
			600.175,590.05 599.05,595.45 597.699,597.7 595.9,599.725 593.875,601.3 591.4,602.425 588.699,603.325 586,603.55 
			546.85,603.55 542.35,603.55 536.949,602.425 534.475,601.3 532.449,599.725 530.65,597.7 529.3,595.45 528.4,592.75 
			528.175,590.05 529.3,584.875 530.65,582.625 532.449,580.6 534.475,579.024 536.949,577.675 539.65,576.774 542.35,576.55 
			579.475,576.55 586,576.55 "/>
		<text transform="matrix(1 0 0 1 546.1699 593.9326)"><tspan x="0" y="0" class="st7 st5">ob</tspan><tspan x="11.25" y="0" class="st7 st5">s</tspan><tspan x="16.199" y="0" class="st7 st5">e</tspan><tspan x="21.824" y="0" class="st7 st5">r</tspan><tspan x="25.19" y="0" class="st7 st5">ve</tspan></text>
		<polygon class="st6" points="716.95,569.8 722.35,570.925 724.825,572.05 726.85,573.85 728.65,575.875 730,578.125 730.9,580.6 
			731.125,583.3 730,588.7 728.65,590.95 726.85,592.975 724.825,594.55 722.35,595.675 719.65,596.575 716.95,596.8 677.8,596.8 
			673.3,596.8 667.9,595.675 665.425,594.55 663.4,592.975 661.6,590.95 660.25,588.7 659.35,586 659.125,583.3 660.25,578.125 
			661.6,575.875 663.4,573.85 665.425,572.274 667.9,570.925 670.6,570.024 673.3,569.8 710.425,569.8 716.95,569.8 "/>
		<text transform="matrix(1 0 0 1 677.1235 587.1807)"><tspan x="0" y="0" class="st7 st5">ob</tspan><tspan x="11.25" y="0" class="st7 st5">s</tspan><tspan x="16.199" y="0" class="st7 st5">e</tspan><tspan x="21.824" y="0" class="st7 st5">r</tspan><tspan x="25.19" y="0" class="st7 st5">ve</tspan></text>
		<polygon class="st6" points="1157.049,567.55 1162.45,568.675 1164.924,569.8 1166.95,571.6 1168.75,573.625 1170.1,575.875 
			1171,578.35 1171.225,581.05 1170.1,586.45 1168.75,588.7 1166.95,590.725 1164.924,592.3 1162.45,593.425 1159.75,594.325 
			1157.049,594.55 1117.901,594.55 1113.401,594.55 1108,593.425 1105.526,592.3 1103.5,590.725 1101.7,588.7 1100.35,586.45 
			1099.45,583.75 1099.225,581.05 1100.35,575.875 1101.7,573.625 1103.5,571.6 1105.526,570.024 1108,568.675 1110.7,567.774 
			1113.401,567.55 1150.526,567.55 1157.049,567.55 "/>
		<text transform="matrix(1 0 0 1 1117.2261 584.9287)"><tspan x="0" y="0" class="st7 st5">ob</tspan><tspan x="11.249" y="0" class="st7 st5">s</tspan><tspan x="16.199" y="0" class="st7 st5">e</tspan><tspan x="21.824" y="0" class="st7 st5">r</tspan><tspan x="25.19" y="0" class="st7 st5">ve</tspan></text>
		<polygon class="st6" points="1356.174,614.8 1361.575,615.925 1364.049,617.05 1366.075,618.85 1367.875,620.875 
			1369.225,623.125 1370.125,625.6 1370.35,628.3 1369.225,633.7 1367.875,635.95 1366.075,637.975 1364.049,639.55 
			1361.575,640.675 1358.875,641.575 1356.174,641.8 1317.026,641.8 1312.526,641.8 1307.125,640.675 1304.651,639.55 
			1302.625,637.975 1300.825,635.95 1299.475,633.7 1298.575,631 1298.35,628.3 1299.475,623.125 1300.825,620.875 1302.625,618.85 
			1304.651,617.274 1307.125,615.925 1309.825,615.024 1312.526,614.8 1349.651,614.8 1356.174,614.8 "/>
		<text transform="matrix(1 0 0 1 1316.3501 632.1816)"><tspan x="0" y="0" class="st7 st5">ob</tspan><tspan x="11.249" y="0" class="st7 st5">s</tspan><tspan x="16.199" y="0" class="st7 st5">e</tspan><tspan x="21.824" y="0" class="st7 st5">r</tspan><tspan x="25.19" y="0" class="st7 st5">ve</tspan></text>
		<polygon class="st6" points="68.275,620.875 73.675,622 76.15,623.125 78.175,624.925 79.975,626.95 81.325,629.2 82.225,631.675 
			82.45,634.375 81.325,639.774 79.975,642.024 78.175,644.05 76.15,645.625 73.675,646.75 70.975,647.649 68.275,647.875 
			29.125,647.875 24.625,647.875 19.225,646.75 16.75,645.625 14.725,644.05 12.925,642.024 11.575,639.774 10.675,637.075 
			10.45,634.375 11.575,629.2 12.925,626.95 14.725,624.925 16.75,623.35 19.225,622 21.925,621.1 24.625,620.875 61.75,620.875 
			68.275,620.875 "/>
		<text transform="matrix(1 0 0 1 28.4521 638.2617)"><tspan x="0" y="0" class="st7 st5">ob</tspan><tspan x="11.25" y="0" class="st7 st5">s</tspan><tspan x="16.199" y="0" class="st7 st5">e</tspan><tspan x="21.824" y="0" class="st7 st5">r</tspan><tspan x="25.19" y="0" class="st7 st5">ve</tspan></text>
		<polyline class="st6" points="158.725,691.975 46.45,691.975 46.45,647.875 "/>
		<line class="st6" x1="340.074" y1="599.05" x2="340.074" y2="502.975"/>
		<polyline class="st6" points="179.199,545.95 179.199,492.85 182.35,491.5 183.25,489.925 183.699,488.35 182.35,485.2 
			180.775,484.3 179.199,483.85 179.199,300.925 "/>
		<line class="st6" x1="180.1" y1="676.225" x2="179.199" y2="572.95"/>
		<line class="st6" x1="340.3" y1="653.725" x2="340.074" y2="626.05"/>
		<line class="st6" x1="433" y1="650.125" x2="432.775" y2="576.55"/>
		<line class="st6" x1="565.074" y1="652.149" x2="564.175" y2="603.55"/>
		<line class="st6" x1="564.175" y1="576.55" x2="563.725" y2="513.1"/>
		<line class="st6" x1="694" y1="660.024" x2="695.125" y2="596.8"/>
		<line class="st6" x1="695.125" y1="569.8" x2="696.025" y2="512.649"/>
		<polyline class="st6" points="783.325,691.975 1334.35,691.975 1334.35,641.8 "/>
		<polyline class="st6" points="783.325,691.975 1135.225,691.975 1135.225,594.55 "/>
		<line class="st6" x1="1135.225" y1="567.55" x2="1135.225" y2="507.475"/>
		<polygon class="st6" points="1252.674,567.55 1258.075,568.675 1260.549,569.8 1262.575,571.6 1264.375,573.625 1265.725,575.875 
			1266.625,578.35 1266.85,581.05 1265.725,586.45 1264.375,588.7 1262.575,590.725 1260.549,592.3 1258.075,593.425 
			1255.375,594.325 1252.674,594.55 1213.526,594.55 1209.026,594.55 1203.625,593.425 1201.151,592.3 1199.125,590.725 
			1197.325,588.7 1195.975,586.45 1195.075,583.75 1194.85,581.05 1195.975,575.875 1197.325,573.625 1199.125,571.6 
			1201.151,570.024 1203.625,568.675 1206.325,567.774 1209.026,567.55 1246.151,567.55 1252.674,567.55 "/>
		<text transform="matrix(1 0 0 1 1212.8501 584.9287)"><tspan x="0" y="0" class="st7 st5">ob</tspan><tspan x="11.249" y="0" class="st7 st5">s</tspan><tspan x="16.199" y="0" class="st7 st5">e</tspan><tspan x="21.824" y="0" class="st7 st5">r</tspan><tspan x="25.19" y="0" class="st7 st5">ve</tspan></text>
		<line class="st6" x1="1229.725" y1="691.975" x2="1230.85" y2="594.55"/>
		<polyline class="st6" points="1230.85,567.55 1229.725,498.25 1232.651,496.899 1233.549,495.55 1234,493.975 1232.651,491.05 
			1231.299,490.149 1229.725,489.7 1226.799,239.949 "/>
		<polygon class="st4" points="556.3,263.35 561.699,264.475 564.175,265.6 566.199,267.4 568,269.425 569.35,271.675 
			570.25,274.15 570.475,276.85 569.35,282.25 568,284.5 566.199,286.525 564.175,288.1 561.699,289.225 559,290.125 556.3,290.35 
			517.15,290.35 512.65,290.35 507.25,289.225 504.775,288.1 502.75,286.525 500.949,284.5 499.6,282.25 498.699,279.55 
			498.475,276.85 499.6,271.675 500.949,269.425 502.75,267.4 504.775,265.824 507.25,264.475 509.949,263.574 512.65,263.35 
			549.775,263.35 556.3,263.35 "/>
		<text transform="matrix(1 0 0 1 521.646 280.7354)"><tspan x="0" y="0" class="st7 st5">u</tspan><tspan x="5.625" y="0" class="st7 st5">t</tspan><tspan x="8.326" y="0" class="st7 st5">ili</tspan><tspan x="15.073" y="0" class="st7 st5">se</tspan></text>
		<polygon class="st4" points="585.324,412.075 590.725,413.2 593.199,414.325 595.225,416.125 597.025,418.149 598.375,420.399 
			599.275,422.875 599.5,425.575 598.375,430.975 597.025,433.225 595.225,435.25 593.199,436.825 590.725,437.95 588.025,438.85 
			585.324,439.075 546.175,439.075 541.675,439.075 536.275,437.95 533.8,436.825 531.775,435.25 529.975,433.225 528.625,430.975 
			527.725,428.274 527.5,425.575 528.625,420.399 529.975,418.149 531.775,416.125 533.8,414.55 536.275,413.2 538.975,412.3 
			541.675,412.075 578.8,412.075 585.324,412.075 "/>
		<text transform="matrix(1 0 0 1 545.9497 429.4561)"><tspan x="0" y="0" class="st7 st5">c</tspan><tspan x="4.95" y="0" class="st7 st5">o</tspan><tspan x="10.575" y="0" class="st7 st5">m</tspan><tspan x="19.119" y="0" class="st7 st5">p</tspan><tspan x="24.743" y="0" class="st7 st5">il</tspan><tspan x="29.241" y="0" class="st7 st5">e</tspan></text>
		<polygon class="st4" points="717.85,412.075 723.25,413.2 725.725,414.325 727.75,416.125 729.55,418.149 730.9,420.399 
			731.8,422.875 732.025,425.575 730.9,430.975 729.55,433.225 727.75,435.25 725.725,436.825 723.25,437.95 720.55,438.85 
			717.85,439.075 678.699,439.075 674.199,439.075 668.8,437.95 666.324,436.825 664.3,435.25 662.5,433.225 661.15,430.975 
			660.25,428.274 660.025,425.575 661.15,420.399 662.5,418.149 664.3,416.125 666.324,414.55 668.8,413.2 671.5,412.3 
			674.199,412.075 711.325,412.075 717.85,412.075 "/>
		<text transform="matrix(1 0 0 1 680.4995 429.4561)"><tspan x="0" y="0" class="st7 st5">p</tspan><tspan x="5.625" y="0" class="st7 st5">r</tspan><tspan x="8.991" y="0" class="st7 st5">odu</tspan><tspan x="25.865" y="0" class="st7 st5">i</tspan><tspan x="28.114" y="0" class="st7 st5">t</tspan></text>
		<polygon class="st4" points="405.55,266.5 461.125,266.5 461.125,308.125 405.55,308.125 405.55,266.5 "/>
		<text transform="matrix(1 0 0 1 416.3506 291.3042)"><tspan x="0" y="0" class="st7 st5">donne</tspan><tspan x="28.124" y="0" class="st7 st5">e</tspan></text>
		<polygon class="st4" points="604,267.4 656.199,267.4 656.199,306.55 604,306.55 604,267.4 "/>
		<text transform="matrix(1 0 0 1 624.4736 290.8584)"><tspan x="0" y="0" class="st7 st5">p</tspan><tspan x="5.625" y="0" class="st7 st5">g</tspan></text>
		<polygon class="st4" points="537.625,474.175 589.6,474.175 589.6,513.1 537.625,513.1 537.625,474.175 "/>
		<text transform="matrix(1 0 0 1 548.4224 497.6318)"><tspan x="0" y="0" class="st7 st5">s</tspan><tspan x="4.95" y="0" class="st7 st5">ou</tspan><tspan x="16.199" y="0" class="st7 st5">r</tspan><tspan x="19.565" y="0" class="st7 st5">ce</tspan></text>
		<polygon class="st4" points="670.6,474.399 721.675,474.399 721.675,512.649 670.6,512.649 670.6,474.399 "/>
		<text transform="matrix(1 0 0 1 691.9766 497.4063)"><tspan x="0" y="0" class="st7 st5">t</tspan><tspan x="2.701" y="0" class="st7 st5">o</tspan></text>
		<line class="st4" x1="461.125" y1="276.175" x2="498.475" y2="276.85"/>
		<line class="st4" x1="570.475" y1="276.85" x2="604" y2="277.074"/>
		<line class="st4" x1="563.5" y1="439.075" x2="563.725" y2="474.175"/>
		<line class="st4" x1="696.025" y1="439.075" x2="696.025" y2="474.399"/>
		<polyline class="st4" points="563.5,412.075 563.5,381.925 696.025,381.925 696.025,412.075 "/>
		<line class="st4" x1="630.1" y1="306.55" x2="630.324" y2="381.925"/>
		<line class="st6" x1="432.775" y1="549.55" x2="433.449" y2="308.125"/>
		<line class="st8" x1="1095.625" y1="493.975" x2="721.675" y2="493.524"/>
		<line class="st8" x1="218.125" y1="287.425" x2="405.55" y2="287.425"/>
		<polyline class="st8" points="1190.799,226.449 433.449,226.449 433.449,266.5 "/>
		<polygon class="st8" points="20.8,502.3 75.25,502.3 75.25,543.25 20.8,543.25 20.8,502.3 "/>
		<text transform="matrix(1 0 0 1 25.748 526.6553)"><tspan x="0" y="0" class="st7 st5">do</tspan><tspan x="11.25" y="0" class="st7 st5">c</tspan><tspan x="16.199" y="0" class="st7 st5">u</tspan><tspan x="21.824" y="0" class="st7 st5">m</tspan><tspan x="30.368" y="0" class="st7 st5">en</tspan><tspan x="41.617" y="0" class="st7 st5">t</tspan></text>
		<polygon class="st0" points="1306.901,504.325 1361.35,504.325 1361.35,545.274 1306.901,545.274 1306.901,504.325 "/>
		<text transform="matrix(1 0 0 1 1311.8501 528.6816)"><tspan x="0" y="0" class="st7 st5">do</tspan><tspan x="11.249" y="0" class="st7 st5">c</tspan><tspan x="16.199" y="0" class="st7 st5">u</tspan><tspan x="21.824" y="0" class="st7 st5">m</tspan><tspan x="30.368" y="0" class="st7 st5">en</tspan><tspan x="41.617" y="0" class="st7 st5">t</tspan></text>
		<line class="st6" x1="46.45" y1="620.875" x2="48.025" y2="543.25"/>
		<line class="st6" x1="1334.35" y1="614.8" x2="1334.125" y2="545.274"/>
		<polyline class="st8" points="376.074,489.475 376.074,493.75 428.275,493.75 429.625,490.6 431.199,489.7 432.775,489.25 
			435.925,490.6 436.824,492.175 437.275,493.75 537.625,493.75 "/>
		<polygon class="st4" points="556.3,317.125 561.699,318.25 564.175,319.375 566.199,321.175 568,323.199 569.35,325.449 
			570.25,327.925 570.475,330.625 569.35,336.025 568,338.275 566.199,340.3 564.175,341.875 561.699,343 559,343.9 556.3,344.125 
			517.15,344.125 512.65,344.125 507.25,343 504.775,341.875 502.75,340.3 500.949,338.275 499.6,336.025 498.699,333.324 
			498.475,330.625 499.6,325.449 500.949,323.199 502.75,321.175 504.775,319.6 507.25,318.25 509.949,317.35 512.65,317.125 
			549.775,317.125 556.3,317.125 "/>
		<text transform="matrix(1 0 0 1 518.9526 334.5093)"><tspan x="0" y="0" class="st7 st5">p</tspan><tspan x="5.625" y="0" class="st7 st5">r</tspan><tspan x="8.991" y="0" class="st7 st5">odu</tspan><tspan x="25.865" y="0" class="st7 st5">i</tspan><tspan x="28.114" y="0" class="st7 st5">t</tspan></text>
		<polyline class="st4" points="447.175,308.125 447.175,330.625 498.475,330.625 "/>
		<polyline class="st4" points="570.475,330.625 617.05,330.625 617.05,306.55 "/>
		<polygon class="st4" points="764.424,269.199 769.825,270.324 772.299,271.449 774.325,273.25 776.125,275.275 777.475,277.525 
			778.375,280 778.6,282.699 777.475,288.1 776.125,290.35 774.325,292.375 772.299,293.949 769.825,295.074 767.125,295.975 
			764.424,296.199 725.275,296.199 720.775,296.199 715.375,295.074 712.9,293.949 710.875,292.375 709.075,290.35 707.725,288.1 
			706.825,285.4 706.6,282.699 707.725,277.525 709.075,275.275 710.875,273.25 712.9,271.675 715.375,270.324 718.075,269.425 
			720.775,269.199 757.9,269.199 764.424,269.199 "/>
		<text transform="matrix(1 0 0 1 729.7734 286.5786)"><tspan x="0" y="0" class="st7 st5">u</tspan><tspan x="5.625" y="0" class="st7 st5">t</tspan><tspan x="8.326" y="0" class="st7 st5">ili</tspan><tspan x="15.072" y="0" class="st7 st5">se</tspan></text>
		<polygon class="st4" points="816.399,262 871.975,262 871.975,303.625 816.399,303.625 816.399,262 "/>
		<text transform="matrix(1 0 0 1 820.2261 286.8047)"><tspan x="0" y="0" class="st7 st5">a</tspan><tspan x="5.625" y="0" class="st7 st5">cc</tspan><tspan x="15.524" y="0" class="st7 st5">e</tspan><tspan x="21.149" y="0" class="st7 st5">ss</tspan><tspan x="31.05" y="0" class="st7 st5">o</tspan><tspan x="36.674" y="0" class="st7 st5">i</tspan><tspan x="38.923" y="0" class="st7 st5">r</tspan><tspan x="42.289" y="0" class="st7 st5">e</tspan></text>
		<line class="st4" x1="655.975" y1="286.525" x2="706.6" y2="286.525"/>
		<line class="st4" x1="778.6" y1="282.699" x2="816.399" y2="282.925"/>
		<text transform="matrix(1 0 0 1 878.0474 300.3032)"><tspan x="0" y="0" class="st7 st5">-</tspan><tspan x="3.366" y="0" class="st7 st5"> </tspan><tspan x="6.067" y="0" class="st7 st5">na</tspan><tspan x="17.316" y="0" class="st7 st5">t</tspan><tspan x="20.018" y="0" class="st7 st5">u</tspan><tspan x="25.643" y="0" class="st7 st5">r</tspan><tspan x="29.008" y="0" class="st7 st5">e</tspan></text>
		<path class="st2" d="M359.425,55.112C359.425,25.05,487.125,1,646.75,1c159.625,0,287.325,24.05,287.325,54.112
			s-127.699,54.112-287.325,54.112C487.125,109.225,359.425,85.175,359.425,55.112L359.425,55.112z"/>
		<text transform="matrix(1 0 0 1 617.0439 56.6357)"><tspan x="0" y="0" class="st7 st5">p</tspan><tspan x="6.07" y="0" class="st7 st5">e</tspan><tspan x="11.695" y="0" class="st7 st5">r</tspan><tspan x="15.516" y="0" class="st7 st5">f</tspan><tspan x="18.891" y="0" class="st7 st5">o</tspan><tspan x="24.961" y="0" class="st7 st5">rm</tspan><tspan x="37.554" y="0" class="st7 st5">e</tspan><tspan x="43.178" y="0" class="st7 st5">u</tspan><tspan x="49.249" y="0" class="st7 st5">r</tspan></text>
		<polygon class="st2" points="652.15,130.375 657.55,131.5 660.025,132.625 662.05,134.425 663.85,136.449 665.199,138.699 
			666.1,141.175 666.324,143.875 665.199,149.275 663.85,151.525 662.05,153.55 660.025,155.125 657.55,156.25 654.85,157.15 
			652.15,157.375 613,157.375 608.5,157.375 603.1,156.25 600.625,155.125 598.6,153.55 596.8,151.525 595.449,149.275 
			594.55,146.574 594.324,143.875 595.449,138.699 596.8,136.449 598.6,134.425 600.625,132.85 603.1,131.5 605.8,130.6 
			608.5,130.375 645.625,130.375 652.15,130.375 "/>
		<text transform="matrix(1 0 0 1 622.2261 147.7603)"><tspan x="0" y="0" class="st7 st5">ag</tspan><tspan x="11.25" y="0" class="st7 st5">i</tspan><tspan x="13.499" y="0" class="st7 st5">t</tspan></text>
		<polygon class="st2" points="866.35,174.475 871.75,175.6 874.225,176.725 876.25,178.525 878.049,180.55 879.399,182.8 
			880.299,185.275 880.524,187.975 879.399,193.375 878.049,195.625 876.25,197.65 874.225,199.225 871.75,200.35 869.049,201.25 
			866.35,201.475 827.2,201.475 822.7,201.475 817.299,200.35 814.825,199.225 812.799,197.65 811,195.625 809.649,193.375 
			808.75,190.675 808.524,187.975 809.649,182.8 811,180.55 812.799,178.525 814.825,176.949 817.299,175.6 820,174.699 
			822.7,174.475 859.825,174.475 866.35,174.475 "/>
		<text transform="matrix(1 0 0 1 823.8276 191.8584)"><tspan x="0" y="0" class="st7 st5">m</tspan><tspan x="8.544" y="0" class="st7 st5">an</tspan><tspan x="19.793" y="0" class="st7 st5">i</tspan><tspan x="22.042" y="0" class="st7 st5">pu</tspan><tspan x="33.291" y="0" class="st7 st5">l</tspan><tspan x="35.54" y="0" class="st7 st5">e</tspan></text>
		<line class="st2" x1="630.324" y1="130.375" x2="627.85" y2="109.225"/>
		<polyline class="st2" points="630.324,157.375 630.1,221.949 633.25,223.3 634.15,224.875 634.6,226.449 633.25,229.6 
			631.675,230.5 630.1,230.949 630.1,267.4 "/>
		<line class="st2" x1="844.524" y1="174.475" x2="844.524" y2="96.625"/>
		<polyline class="st2" points="844.524,201.475 844.299,221.949 847.45,223.3 848.35,224.875 848.799,226.449 847.45,229.6 
			845.875,230.5 844.299,230.949 844.299,262 "/>
		<polygon class="st2" points="789.401,35.425 843.85,35.425 843.85,76.375 789.401,76.375 789.401,35.425 "/>
		<text transform="matrix(1 0 0 1 794.3481 59.7813)"><tspan x="0" y="0" class="st7 st5">do</tspan><tspan x="11.249" y="0" class="st7 st5">c</tspan><tspan x="16.199" y="0" class="st7 st5">u</tspan><tspan x="21.824" y="0" class="st7 st5">m</tspan><tspan x="30.368" y="0" class="st7 st5">en</tspan><tspan x="41.617" y="0" class="st7 st5">t</tspan></text>
		<polygon class="st6" points="1018.674,174.025 1024.075,175.15 1026.549,176.275 1028.575,178.074 1030.375,180.1 
			1031.725,182.35 1032.625,184.824 1032.85,187.525 1031.725,192.925 1030.375,195.175 1028.575,197.199 1026.549,198.775 
			1024.075,199.9 1021.375,200.8 1018.674,201.025 979.526,201.025 975.026,201.025 969.625,199.9 967.151,198.775 965.125,197.199 
			963.325,195.175 961.975,192.925 961.075,190.225 960.85,187.525 961.975,182.35 963.325,180.1 965.125,178.074 967.151,176.5 
			969.625,175.15 972.325,174.25 975.026,174.025 1012.151,174.025 1018.674,174.025 "/>
		<text transform="matrix(1 0 0 1 978.8491 191.4063)"><tspan x="0" y="0" class="st7 st5">ob</tspan><tspan x="11.249" y="0" class="st7 st5">s</tspan><tspan x="16.199" y="0" class="st7 st5">e</tspan><tspan x="21.824" y="0" class="st7 st5">r</tspan><tspan x="25.19" y="0" class="st7 st5">ve</tspan></text>
		<polygon class="st6" points="1019.799,128.8 1025.2,129.925 1027.674,131.05 1029.7,132.85 1031.5,134.875 1032.85,137.125 
			1033.75,139.6 1033.975,142.3 1032.85,147.699 1031.5,149.949 1029.7,151.975 1027.674,153.55 1025.2,154.675 1022.5,155.574 
			1019.799,155.8 980.651,155.8 976.151,155.8 970.75,154.675 968.276,153.55 966.25,151.975 964.45,149.949 963.1,147.699 
			962.2,145 961.975,142.3 963.1,137.125 964.45,134.875 966.25,132.85 968.276,131.275 970.75,129.925 973.45,129.025 
			976.151,128.8 1013.276,128.8 1019.799,128.8 "/>
		<text transform="matrix(1 0 0 1 979.9731 146.1802)"><tspan x="0" y="0" class="st7 st5">ob</tspan><tspan x="11.249" y="0" class="st7 st5">s</tspan><tspan x="16.199" y="0" class="st7 st5">e</tspan><tspan x="21.824" y="0" class="st7 st5">r</tspan><tspan x="25.19" y="0" class="st7 st5">ve</tspan></text>
		<polygon class="st6" points="1019.575,42.175 1024.975,43.3 1027.45,44.425 1029.475,46.225 1031.276,48.25 1032.625,50.5 
			1033.526,52.975 1033.75,55.675 1032.625,61.074 1031.276,63.324 1029.475,65.35 1027.45,66.925 1024.975,68.05 1022.276,68.949 
			1019.575,69.175 980.424,69.175 975.924,69.175 970.526,68.05 968.049,66.925 966.026,65.35 964.225,63.324 962.875,61.074 
			961.975,58.375 961.75,55.675 962.875,50.5 964.225,48.25 966.026,46.225 968.049,44.65 970.526,43.3 973.225,42.4 
			975.924,42.175 1013.049,42.175 1019.575,42.175 "/>
		<text transform="matrix(1 0 0 1 979.7466 59.5552)"><tspan x="0" y="0" class="st7 st5">ob</tspan><tspan x="11.249" y="0" class="st7 st5">s</tspan><tspan x="16.199" y="0" class="st7 st5">e</tspan><tspan x="21.824" y="0" class="st7 st5">r</tspan><tspan x="25.19" y="0" class="st7 st5">ve</tspan></text>
		<polygon class="st6" points="865.899,568.675 871.299,569.8 873.774,570.925 875.799,572.725 877.6,574.75 878.95,577 
			879.85,579.475 880.075,582.175 878.95,587.575 877.6,589.825 875.799,591.85 873.774,593.425 871.299,594.55 868.6,595.45 
			865.899,595.675 826.75,595.675 822.25,595.675 816.85,594.55 814.375,593.425 812.35,591.85 810.549,589.825 809.2,587.575 
			808.299,584.875 808.075,582.175 809.2,577 810.549,574.75 812.35,572.725 814.375,571.149 816.85,569.8 819.549,568.899 
			822.25,568.675 859.375,568.675 865.899,568.675 "/>
		<text transform="matrix(1 0 0 1 826.0757 586.0576)"><tspan x="0" y="0" class="st7 st5">ob</tspan><tspan x="11.249" y="0" class="st7 st5">s</tspan><tspan x="16.199" y="0" class="st7 st5">e</tspan><tspan x="21.824" y="0" class="st7 st5">r</tspan><tspan x="25.19" y="0" class="st7 st5">ve</tspan></text>
		<line class="st3" x1="843.85" y1="691.975" x2="844.075" y2="595.675"/>
		<polyline class="st4" points="844.075,568.675 844.075,498.024 847.225,496.675 848.125,495.1 848.575,493.524 847.225,490.375 
			845.649,489.475 844.075,489.024 844.299,303.625 "/>
		<polyline class="st3" points="1033.75,55.675 1078.075,55.675 1078.075,221.949 1081.225,223.3 1082.125,224.875 
			1082.575,226.449 1081.225,229.6 1079.651,230.5 1078.075,230.949 1078.075,489.25 1081.225,490.6 1082.125,492.175 
			1082.575,493.75 1081.225,496.899 1079.651,497.8 1078.075,498.25 1078.075,691.975 "/>
		<line class="st3" x1="1033.975" y1="142.3" x2="1078.075" y2="141.625"/>
		<line class="st3" x1="1032.85" y1="187.525" x2="1078.075" y2="186.175"/>
		<line class="st3" x1="960.85" y1="187.525" x2="880.524" y2="187.975"/>
		<polyline class="st3" points="961.975,142.3 848.799,142.75 847.45,139.824 846.1,138.925 844.524,138.475 841.6,139.824 
			840.7,141.175 840.25,142.75 666.324,143.875 "/>
		<line class="st3" x1="961.75" y1="55.675" x2="843.85" y2="55.9"/>
		<polygon class="st0" points="1153.901,385.075 1159.299,386.2 1161.776,387.325 1163.799,389.125 1165.6,391.149 1166.95,393.399 
			1167.85,395.875 1168.075,398.575 1166.95,403.975 1165.6,406.225 1163.799,408.25 1161.776,409.825 1159.299,410.95 
			1156.6,411.85 1153.901,412.075 1114.75,412.075 1110.25,412.075 1104.85,410.95 1102.375,409.825 1100.35,408.25 
			1098.549,406.225 1097.2,403.975 1096.299,401.274 1096.075,398.575 1097.2,393.399 1098.549,391.149 1100.35,389.125 
			1102.375,387.55 1104.85,386.2 1107.549,385.3 1110.25,385.075 1147.375,385.075 1153.901,385.075 "/>
		<text transform="matrix(1 0 0 1 1114.7485 402.4541)"><tspan x="0" y="0" class="st7 st5">ana</tspan><tspan x="16.874" y="0" class="st7 st5">l</tspan><tspan x="19.123" y="0" class="st7 st5">y</tspan><tspan x="23.855" y="0" class="st7 st5">se</tspan></text>
		<line class="st0" x1="1132.075" y1="412.075" x2="1131.625" y2="480.475"/>
		<polyline class="st0" points="1168.075,398.575 1224.1,398.575 1225.45,395.425 1227.026,394.524 1228.6,394.075 1231.75,395.425 
			1232.651,397 1233.1,398.575 1282.6,398.8 "/>
	</g>
</svg>
